[Header]
FileType HTR
DataType HTRS
FileVersion 1
NumSegments 22
NumFrames 7
DataFrameRate 24
EulerRotationOrder ZYX
CalibrationUnits mm
RotationUnits Degrees
GlobalAxisofGravity Y
BoneLengthAxis Y
ScaleFactor 1.0
[SegmentNames&Hierarchy]
reference	GLOBAL
Hips	reference
Spine	Hips
Spine1	Spine
Neck	Spine1
Head	Neck
LeftShoulder	Spine1
LeftArm	LeftShoulder
LeftForeArm	LeftArm
LeftHand	LeftForeArm
RightShoulder	Spine1
RightArm	RightShoulder
RightForeArm	RightArm
RightHand	RightForeArm
LeftUpLeg	Hips
LeftLeg	LeftUpLeg
LeftFoot	LeftLeg
LeftToeBase	LeftFoot
RightUpLeg	Hips
RightLeg	RightUpLeg
RightFoot	RightLeg
RightToeBase	RightFoot
[BasePosition]
reference	0	0	0	0	0	0	1
Hips	0	0	0	0	0	0	1
Spine	0	0	0	0	-0	90	1
Spine1	0	0	0	0	0	0	1
Neck	0	0	0	-7.352327771	-7.352327771	90	1
Head	0	0	0	0	-0	90	1
LeftShoulder	0	0	0	0	0	0	1
LeftArm	0	0	0	0	0	0	1
LeftForeArm	0	0	0	0	0	0	1
LeftHand	0	0	0	0	0	0	1
RightShoulder	0	0	0	0	-0	180	1
RightArm	0	0	0	0	-0	180	1
RightForeArm	0	0	0	0	-0	180	1
RightHand	0	0	0	0	-0	180	1
LeftUpLeg	0	0	0	0	-0	-90	1
LeftLeg	0	0	0	0	-0	-90	1
LeftFoot	0	0	0	66.57146043	-66.57146043	-90	1
LeftToeBase	0	0	0	0	-90	0	1
RightUpLeg	0	0	0	0	-0	-90	1
RightLeg	0	0	0	0	-0	-90	1
RightFoot	0	0	0	66.57146043	-66.57146043	-90	1
RightToeBase	0	0	0	0	-90	0	1
[reference]
64	0	0	0	0	-0	0	1.0
65	0	0	0	0	-0	0	1.0
66	0	0	0	0	-0	0	1.0
67	0	0	0	0	-0	0	1.0
68	0	0	0	0	-0	0	1.0
69	0	0	0	0	-0	0	1.0
70	0	0	0	0	-0	0	1.0
[Hips]
64	1.661385536	8.662502289	-2.628813982	-16.8822403	-110.0669708	21.17076111	1.0
65	1.736513853	8.669446945	-2.980934143	-17.18144989	-108.1218414	21.22873688	1.0
66	1.832295895	8.553943634	-3.371194601	-16.66012764	-106.4195251	20.85321999	1.0
67	1.950119972	8.412435532	-3.793200016	-17.84039307	-105.0923691	22.19816589	1.0
68	2.110881329	8.370301247	-4.199836254	-23.83586121	-104.8647766	28.74081612	1.0
69	2.253574848	8.356509209	-4.535989285	-30.77263069	-104.2449036	35.40987396	1.0
70	2.350753784	8.387516975	-4.804033756	-33.19337463	-101.9332809	37.73498917	1.0
[Spine]
64	0	0.7457100153	0	-7.301527977	0.1911719739	-88.88214874	1.0
65	0	0.7457100153	0	-7.288001537	-0.5676857829	-90.31839752	1.0
66	0	0.7457100153	0	-8.154972076	-0.8165363073	-91.41947174	1.0
67	0	0.7457100153	0	-9.001250267	-1.02657795	-92.00850677	1.0
68	0	0.7457100153	0	-8.844171524	-0.8791368008	-90.55355835	1.0
69	0	0.7457100153	0	-7.319474697	-0.520331502	-89.36693573	1.0
70	0	0.7457100153	0	-7.107713699	-1.301316977	-89.96815491	1.0
[Spine1]
64	0	2.140589952	0	4.294621468	-0.1791853309	7.111797333	1.0
65	0	2.140589952	0	2.506024837	-0.3512131274	7.592451572	1.0
66	0	2.140589952	0	3.619242191	-0.4113198221	6.709375858	1.0
67	0	2.140589952	0	4.632982254	-0.6549760699	6.194060326	1.0
68	0	2.140589952	0	5.465575218	-0.5633987784	6.02547121	1.0
69	0	2.140589952	0	5.562058449	-0.4589620531	5.558969021	1.0
70	0	2.140589952	0	6.654099464	-0.7584676743	5.167071342	1.0
[Neck]
64	0	2.32246995	0	-11.29884338	11.65398216	-90.52974701	1.0
65	0	2.32246995	0	-9.74955368	11.56124783	-89.77354431	1.0
66	0	2.32246995	0	-9.886177063	11.42775536	-87.80872345	1.0
67	0	2.32246995	0	-11.92628098	11.37552547	-88.95557404	1.0
68	0	2.32246995	0	-15.14457607	11.497756	-90.26249695	1.0
69	0	2.32246995	0	-18.1913929	11.45514202	-90.65986633	1.0
70	0	2.32246995	0	-20.35598755	11.44446659	-91.29943848	1.0
[Head]
64	0	1.409579992	0.1818799973	-4.687231064	4.623059273	-91.70655823	1.0
65	0	1.409579992	0.1818799973	-4.817986488	4.530530453	-92.14379883	1.0
66	0	1.409579992	0.1818799973	-4.917325497	4.419260025	-92.98781586	1.0
67	0	1.409579992	0.1818799973	-5.634872437	4.339624882	-92.69184113	1.0
68	0	1.409579992	0.1818799973	-4.522735596	4.55565834	-92.51589966	1.0
69	0	1.409579992	0.1818799973	-3.727903605	4.586493969	-92.40837097	1.0
70	0	1.409579992	0.1818799973	-3.487420082	4.570604801	-91.29144287	1.0
[LeftShoulder]
64	0.3668199778	1.946700096	-0.02662999928	-17.52209663	-12.45721436	-0.2646704018	1.0
65	0.3668199778	1.946700096	-0.02662999928	-17.25504494	-13.56338024	-1.169638157	1.0
66	0.3668199778	1.946700096	-0.02662999928	-18.73326111	-14.72292614	-0.7566536665	1.0
67	0.3668199778	1.946700096	-0.02662999928	-19.85964775	-13.98547745	-0.5044181347	1.0
68	0.3668199778	1.946700096	-0.02662999928	-18.7003727	-14.00507164	-0.9046323895	1.0
69	0.3668199778	1.946700096	-0.02662999928	-17.1394825	-14.29108047	-2.320081234	1.0
70	0.3668199778	1.946700096	-0.02662999928	-17.19179916	-13.82307911	-2.202720881	1.0
[LeftArm]
64	1.140689969	0	0	48.48628235	11.33677673	-73.06362152	1.0
65	1.140689969	0	0	47.96124649	10.37901974	-71.20677948	1.0
66	1.140689969	0	0	47.8157196	9.559930801	-70.06876373	1.0
67	1.140689969	0	0	48.97090149	10.21571255	-70.42790985	1.0
68	1.140689969	0	0	47.95944214	10.04995346	-71.82281494	1.0
69	1.140689969	0	0	47.73399353	10.39581203	-72.68928528	1.0
70	1.140689969	0	0	48.4174881	11.1071949	-73.74121094	1.0
[LeftForeArm]
64	2.749800205	0	0	-139.0899048	-47.05760956	157.9650574	1.0
65	2.749800205	0	0	-138.3127747	-46.48152924	157.5583496	1.0
66	2.749800205	0	0	-138.2429962	-46.77771759	157.7760773	1.0
67	2.749800205	0	0	-136.1589813	-46.54040146	156.7747498	1.0
68	2.749800205	0	0	-137.6015625	-47.52667236	157.0570831	1.0
69	2.749800205	0	0	-137.994278	-48.20100403	156.9489899	1.0
70	2.749800205	0	0	-136.4273071	-48.32719421	155.7549591	1.0
[LeftHand]
64	2.295179844	0	0	-8.556940079	-21.74561691	6.686081886	1.0
65	2.295179844	0	0	-9.326132774	-20.86951828	7.742919445	1.0
66	2.295179844	0	0	-8.721663475	-20.67663574	8.946237564	1.0
67	2.295179844	0	0	-9.128050804	-20.17885399	10.60144329	1.0
68	2.295179844	0	0	-8.886169434	-20.25913811	10.03951645	1.0
69	2.295179844	0	0	-8.453052521	-20.16778374	8.149453163	1.0
70	2.295179844	0	0	-8.862053871	-19.97585487	7.223608971	1.0
[RightShoulder]
64	-0.3601199985	1.946700096	-0.02662999928	-8.103343964	3.559440613	175.2530365	1.0
65	-0.3601199985	1.946700096	-0.02662999928	-7.316997528	3.425049067	174.9946747	1.0
66	-0.3601199985	1.946700096	-0.02662999928	-7.201030254	3.469051361	176.4651489	1.0
67	-0.3601199985	1.946700096	-0.02662999928	-8.053920746	2.989675522	176.2947388	1.0
68	-0.3601199985	1.946700096	-0.02662999928	-8.586213112	4.229325771	176.223053	1.0
69	-0.3601199985	1.946700096	-0.02662999928	-7.007535458	3.131630182	176.9826202	1.0
70	-0.3601199985	1.946700096	-0.02662999928	-7.421919346	4.075598717	175.0538177	1.0
[RightArm]
64	-1.140689969	0	0	58.34367371	0.9805293083	-104.562149	1.0
65	-1.140689969	0	0	59.60721207	1.595926166	-104.3424911	1.0
66	-1.140689969	0	0	60.45548248	1.491196156	-104.7814102	1.0
67	-1.140689969	0	0	61.93696213	1.364064932	-103.5787811	1.0
68	-1.140689969	0	0	60.96923065	0.4914848208	-102.8822327	1.0
69	-1.140689969	0	0	61.08216095	1.860982537	-103.7182999	1.0
70	-1.140689969	0	0	59.00687408	0.8838356137	-102.7945862	1.0
[RightForeArm]
64	-2.749800205	0	0	-107.2494583	46.36954498	-325.6259766	1.0
65	-2.749800205	0	0	-103.5418167	44.55809021	-323.7648315	1.0
66	-2.749800205	0	0	-100.201767	43.15713501	-322.3318176	1.0
67	-2.749800205	0	0	-99.41047668	43.35225677	-321.5507507	1.0
68	-2.749800205	0	0	-101.9352112	44.68219376	-321.7789307	1.0
69	-2.749800205	0	0	-102.3177261	45.03436661	-321.1640625	1.0
70	-2.749800205	0	0	-104.4976196	46.39537811	-321.7573853	1.0
[RightHand]
64	-2.295179844	0	0	-2.170007229	18.0891571	-200.2264709	1.0
65	-2.295179844	0	0	-3.996585131	17.90021324	-200.3352203	1.0
66	-2.295179844	0	0	-5.051653385	18.30085373	-200.2793579	1.0
67	-2.295179844	0	0	-5.213736534	18.19975662	-200.2156677	1.0
68	-2.295179844	0	0	-5.411420345	18.34469604	-199.6900635	1.0
69	-2.295179844	0	0	-6.175904274	18.5784893	-198.858429	1.0
70	-2.295179844	0	0	-5.758996964	18.49711418	-200.1794586	1.0
[LeftUpLeg]
64	0.9094099998	0	0	-1.530048013	6.317300797	104.0466309	1.0
65	0.9094099998	0	0	-0.4956171513	5.671173096	105.5813751	1.0
66	0.9094099998	0	0	-0.8790344596	4.391182899	107.6005859	1.0
67	0.9094099998	0	0	-2.509552479	2.54889822	110.5799561	1.0
68	0.9094099998	0	0	-5.332928181	0.2201894224	114.8337555	1.0
69	0.9094099998	0	0	-8.985138893	-1.293010354	117.9315796	1.0
70	0.9094099998	0	0	-12.35124207	-2.068370819	117.5479736	1.0
[LeftLeg]
64	0	-4.498080254	0	13.0954895	3.93148613	87.77822113	1.0
65	0	-4.498080254	0	10.35130024	4.52496767	88.75331879	1.0
66	0	-4.498080254	0	9.751109123	5.474699974	88.98569489	1.0
67	0	-4.498080254	0	11.46402168	4.82220602	89.15304565	1.0
68	0	-4.498080254	0	15.54184628	6.96606493	89.95839691	1.0
69	0	-4.498080254	0	20.70926094	5.273510933	87.87432861	1.0
70	0	-4.498080254	0	23.76068497	7.879909039	85.33590698	1.0
[LeftFoot]
64	0	-3.729400158	0	121.2855377	77.6257782	168.9092407	1.0
65	0	-3.729400158	0	123.8262634	79.79460144	168.5193939	1.0
66	0	-3.729400158	0	126.838768	81.31546021	171.8589478	1.0
67	0	-3.729400158	0	143.934845	81.66891479	190.2750397	1.0
68	0	-3.729400158	0	144.8874054	82.40242004	190.9358215	1.0
69	0	-3.729400158	0	120.0860062	71.62140656	167.9526825	1.0
70	0	-3.729400158	0	111.102478	64.0071106	158.7135468	1.0
[LeftToeBase]
64	0	-0.5911099911	1.364109993	0	0	0	1.0
65	0	-0.5911099911	1.364109993	0	0	0	1.0
66	0	-0.5911099911	1.364109993	0	0	0	1.0
67	0	-0.5911099911	1.364109993	0	0	0	1.0
68	0	-0.5911099911	1.364109993	0	0	0	1.0
69	0	-0.5911099911	1.364109993	0	0	0	1.0
70	0	-0.5911099911	1.364109993	0	0	0	1.0
[RightUpLeg]
64	-0.9094099998	0	0	-10.00863075	-14.97123337	81.90659332	1.0
65	-0.9094099998	0	0	-8.499965668	-15.33410263	81.32917786	1.0
66	-0.9094099998	0	0	-7.26962471	-12.29346657	81.68177795	1.0
67	-0.9094099998	0	0	-6.882001877	-12.25203514	84.2109375	1.0
68	-0.9094099998	0	0	-9.673110962	-15.00092411	89.35920715	1.0
69	-0.9094099998	0	0	-10.9576931	-15.84786606	91.91944122	1.0
70	-0.9094099998	0	0	-10.0810194	-17.22044373	92.82730103	1.0
[RightLeg]
64	0	-4.498080254	0	16.49471092	-1.579927802	83.75572968	1.0
65	0	-4.498080254	0	17.09404182	-0.09194459766	84.92610168	1.0
66	0	-4.498080254	0	18.28077888	-1.519131184	84.33123779	1.0
67	0	-4.498080254	0	19.60513115	-5.311282158	83.1075058	1.0
68	0	-4.498080254	0	25.03042984	2.999328136	83.98968506	1.0
69	0	-4.498080254	0	29.17807198	8.524590492	89.37256622	1.0
70	0	-4.498080254	0	27.14954376	4.31430912	87.64404297	1.0
[RightFoot]
64	0	-3.729400158	0	81.92089844	46.41267395	101.7822342	1.0
65	0	-3.729400158	0	83.06615448	42.57698822	98.9937439	1.0
66	0	-3.729400158	0	80.65350342	38.56432724	106.1429214	1.0
67	0	-3.729400158	0	77.06635284	41.72565079	115.3711548	1.0
68	0	-3.729400158	0	65.70831299	44.92630386	111.7158813	1.0
69	0	-3.729400158	0	53.5529213	47.52207947	101.6665573	1.0
70	0	-3.729400158	0	58.46418762	49.74524689	106.1416321	1.0
[RightToeBase]
64	0	-0.5911099911	1.364109993	0	0	0	1.0
65	0	-0.5911099911	1.364109993	0	0	0	1.0
66	0	-0.5911099911	1.364109993	0	0	0	1.0
67	0	-0.5911099911	1.364109993	0	0	0	1.0
68	0	-0.5911099911	1.364109993	0	0	0	1.0
69	0	-0.5911099911	1.364109993	0	0	0	1.0
70	0	-0.5911099911	1.364109993	0	0	0	1.0
[EndOfFile]
